<svg width="19" height="19" viewBox="0 0 19 19" fill="none" xmlns="http://www.w3.org/2000/svg">
<path d="M9.5 0C14.7466 0 19 4.25341 19 9.5C19 14.7466 14.7466 19 9.5 19C4.25341 19 0 14.7466 0 9.5C0 4.25341 4.25341 0 9.5 0ZM14.1114 6.68714C14.3709 6.28684 14.2565 5.75182 13.8562 5.49273C13.4546 5.23364 12.9204 5.34764 12.6613 5.74793L8.46882 12.2192L6.26223 9.71073C5.94743 9.35275 5.40118 9.31734 5.0432 9.633C4.68523 9.94779 4.65025 10.4936 4.96505 10.852L7.92516 14.2163C8.09011 14.4033 8.32675 14.5095 8.57375 14.5095C8.59491 14.5095 8.61607 14.5087 8.6368 14.5074C8.90668 14.4875 9.15109 14.3424 9.29834 14.1157L14.1114 6.68714Z" fill="white"/>
</svg>
