<svg width="19" height="19" viewBox="0 0 19 19" fill="none" xmlns="http://www.w3.org/2000/svg">
<path d="M9.5 0C14.7466 0 19 4.25341 19 9.5C19 14.7466 14.7466 19 9.5 19C4.25341 19 0 14.7466 0 9.5C0 4.25341 4.25341 0 9.5 0ZM12.9545 10.3636C13.4313 10.3636 13.8182 9.97716 13.8182 9.5C13.8182 9.02284 13.4313 8.63636 12.9545 8.63636C12.8475 8.63636 11.6967 8.63636 10.3636 8.63636C10.3636 7.30334 10.3636 6.15255 10.3636 6.04545C10.3636 5.56873 9.97716 5.18182 9.5 5.18182C9.02327 5.18182 8.63636 5.56873 8.63636 6.04545C8.63636 6.15255 8.63636 7.30334 8.63636 8.63636C7.30334 8.63636 6.15255 8.63636 6.04545 8.63636C5.56873 8.63636 5.18182 9.02284 5.18182 9.5C5.18182 9.97716 5.56873 10.3636 6.04545 10.3636C6.15255 10.3636 7.30334 10.3636 8.63636 10.3636C8.63636 11.6967 8.63636 12.8475 8.63636 12.9545C8.63636 13.4313 9.02327 13.8182 9.5 13.8182C9.97716 13.8182 10.3636 13.4313 10.3636 12.9545C10.3636 12.8475 10.3636 11.6967 10.3636 10.3636C11.6967 10.3636 12.8475 10.3636 12.9545 10.3636Z" fill="black"/>
</svg>
