<svg width="14" height="14" viewBox="0 0 14 14" fill="none" xmlns="http://www.w3.org/2000/svg">
<path d="M7 0.0279694C10.7969 0.0279694 13.875 3.10609 13.875 6.90297C13.875 10.6998 10.7969 13.778 7 13.778C3.20312 13.778 0.125 10.6998 0.125 6.90297C0.125 3.10609 3.20312 0.0279694 7 0.0279694ZM8.54688 9.33359C8.79094 9.57766 9.18656 9.57766 9.43062 9.33359C9.67469 9.08953 9.67469 8.69391 9.43062 8.44984C9.37594 8.39516 8.56594 7.58516 7.88375 6.90297C8.56594 6.22078 9.37562 5.41109 9.43062 5.35609C9.67469 5.11203 9.67469 4.71641 9.43062 4.47234C9.18656 4.22828 8.79094 4.22828 8.54688 4.47234C8.49219 4.52703 7.68219 5.33703 7 6.01922C6.31781 5.33703 5.50781 4.52703 5.45312 4.47234C5.20906 4.22828 4.81344 4.22828 4.56938 4.47234C4.32531 4.71641 4.32531 5.11203 4.56938 5.35609C4.62406 5.41078 5.43406 6.22078 6.11625 6.90297C5.43406 7.58516 4.62437 8.39485 4.56938 8.44984C4.32531 8.69391 4.32531 9.08953 4.56938 9.33359C4.81344 9.57766 5.20906 9.57766 5.45312 9.33359C5.50781 9.27891 6.31781 8.46891 7 7.78672C7.68219 8.46891 8.49219 9.27891 8.54688 9.33359Z" fill="white"/>
</svg>
