<svg width="20" height="21" viewBox="0 0 20 21" fill="none" xmlns="http://www.w3.org/2000/svg">
<path d="M15.6079 12.128C15.5257 12.127 15.4441 12.1129 15.3663 12.0863C15.2915 12.0517 15.2237 12.0037 15.1663 11.9446C15.1075 11.8872 15.0609 11.8185 15.0294 11.7426C14.9979 11.6667 14.9821 11.5852 14.9829 11.503C14.9826 11.4225 14.9997 11.3429 15.0329 11.2696C15.0592 11.1901 15.1051 11.1185 15.1663 11.0613C15.2241 11.0048 15.2919 10.9596 15.3663 10.928C15.5142 10.8657 15.6792 10.8569 15.8329 10.903C15.9073 10.9346 15.9751 10.9798 16.0329 11.0363C16.0914 11.0957 16.1368 11.1667 16.1663 11.2446C16.1996 11.3179 16.2166 11.3975 16.2163 11.478C16.2171 11.5602 16.2013 11.6417 16.1698 11.7176C16.1383 11.7935 16.0918 11.8622 16.0329 11.9196C15.9241 12.0421 15.7714 12.1169 15.6079 12.128Z" fill="white"/>
<path d="M4.3916 12.128C4.2259 12.1278 4.06704 12.0619 3.94994 11.9446C3.88954 11.8868 3.84382 11.8154 3.8166 11.7363C3.78337 11.6601 3.76635 11.5778 3.7666 11.4946C3.76675 11.3289 3.83269 11.1701 3.94994 11.053C4.01116 10.9887 4.0849 10.9376 4.1666 10.903C4.32247 10.8448 4.49407 10.8448 4.64994 10.903C4.72431 10.9346 4.79214 10.9798 4.84994 11.0363C4.96567 11.1544 5.03135 11.3126 5.03327 11.478C5.04121 11.5655 5.02983 11.6537 4.99994 11.7363C4.96831 11.8107 4.9231 11.8785 4.8666 11.9363C4.80914 11.9953 4.74136 12.0433 4.6666 12.078C4.57841 12.11 4.48543 12.1269 4.3916 12.128Z" fill="white"/>
<path d="M4.9998 15.9946C4.40965 15.9971 3.82492 15.8819 3.27977 15.6559C2.73463 15.4298 2.24001 15.0974 1.8248 14.678C1.19585 14.0509 0.767301 13.2512 0.593512 12.3803C0.419723 11.5093 0.508524 10.6064 0.84865 9.78596C1.18878 8.96555 1.7649 8.26464 2.50395 7.77214C3.243 7.27963 4.11168 7.01773 4.9998 7.01963C5.16556 7.01963 5.32453 7.08548 5.44174 7.20269C5.55895 7.3199 5.6248 7.47887 5.6248 7.64463C5.6248 7.81039 5.55895 7.96936 5.44174 8.08657C5.32453 8.20378 5.16556 8.26963 4.9998 8.26963C4.56577 8.265 4.13529 8.34825 3.73429 8.51438C3.33329 8.68051 2.97005 8.92608 2.66646 9.2363C2.06291 9.84633 1.72438 10.6698 1.72438 11.528C1.72438 12.3861 2.06291 13.2096 2.66646 13.8196C3.2851 14.4033 4.10345 14.7284 4.95397 14.7284C5.80448 14.7284 6.62283 14.4033 7.24147 13.8196C7.35865 13.7026 7.51751 13.6368 7.68313 13.6368C7.84876 13.6368 8.00761 13.7026 8.1248 13.8196C8.24184 13.9368 8.30758 14.0957 8.30758 14.2613C8.30758 14.4269 8.24184 14.5858 8.1248 14.703C7.29316 15.5272 6.17066 15.9911 4.9998 15.9946Z" fill="white"/>
<path d="M15.0414 15.9946C14.4514 15.9962 13.8669 15.8806 13.3219 15.6546C12.7769 15.4286 12.2821 15.0966 11.8664 14.678C11.7493 14.5608 11.6836 14.4019 11.6836 14.2363C11.6836 14.0707 11.7493 13.9118 11.8664 13.7946C11.9836 13.6776 12.1424 13.6118 12.308 13.6118C12.4737 13.6118 12.6325 13.6776 12.7497 13.7946C13.3683 14.3783 14.1867 14.7034 15.0372 14.7034C15.8877 14.7034 16.7061 14.3783 17.3247 13.7946C17.9283 13.1846 18.2668 12.3611 18.2668 11.503C18.2668 10.6448 17.9283 9.82132 17.3247 9.2113C17.0239 8.91064 16.6665 8.67261 16.2732 8.51097C15.8798 8.34934 15.4583 8.26731 15.033 8.26963C14.8673 8.26963 14.7083 8.20378 14.5911 8.08657C14.4739 7.96936 14.408 7.81039 14.408 7.64463C14.408 7.47887 14.4739 7.3199 14.5911 7.20269C14.7083 7.08548 14.8673 7.01963 15.033 7.01963C16.1897 7.06949 17.2825 7.56407 18.0834 8.40018C18.8842 9.23629 19.3313 10.3494 19.3313 11.5071C19.3313 12.6649 18.8842 13.778 18.0834 14.6141C17.2825 15.4502 16.1897 15.9448 15.033 15.9946H15.0414Z" fill="white"/>
<path d="M12.3164 14.8613H7.68311C7.51735 14.8613 7.35837 14.7954 7.24116 14.6782C7.12395 14.561 7.05811 14.4021 7.05811 14.2363C7.05811 14.0705 7.12395 13.9116 7.24116 13.7944C7.35837 13.6771 7.51735 13.6113 7.68311 13.6113H12.3164C12.4822 13.6113 12.6412 13.6771 12.7584 13.7944C12.8756 13.9116 12.9414 14.0705 12.9414 14.2363C12.9414 14.4021 12.8756 14.561 12.7584 14.6782C12.6412 14.7954 12.4822 14.8613 12.3164 14.8613Z" fill="white"/>
<path d="M15.0417 8.26963H5C4.83424 8.26963 4.67527 8.20378 4.55806 8.08657C4.44085 7.96936 4.375 7.81039 4.375 7.64463C4.375 7.47887 4.44085 7.3199 4.55806 7.20269C4.67527 7.08548 4.83424 7.01963 5 7.01963H15.0833C15.2491 7.01963 15.4081 7.08548 15.5253 7.20269C15.6425 7.3199 15.7083 7.47887 15.7083 7.64463C15.7083 7.81039 15.6425 7.96936 15.5253 8.08657C15.4081 8.20378 15.2491 8.26963 15.0833 8.26963H15.0417Z" fill="white"/>
</svg>
