<svg width="64" height="64" viewBox="0 0 64 64" fill="none" xmlns="http://www.w3.org/2000/svg">
<g filter="url(#filter0_d_18_1424)">
<path d="M32 9C24.832 9 19 14.832 19 22V27.3477C16.6707 28.1719 15 30.3881 15 33V49C15 52.314 17.686 55 21 55H43C46.314 55 49 52.314 49 49V33C49 30.3881 47.3293 28.1719 45 27.3477V22C45 14.832 39.168 9 32 9ZM32 13C36.963 13 41 17.038 41 22V27H23V22C23 17.038 27.037 13 32 13Z" fill="white"/>
</g>
<defs>
<filter id="filter0_d_18_1424" x="-4" y="0" width="72" height="72" filterUnits="userSpaceOnUse" color-interpolation-filters="sRGB">
<feFlood flood-opacity="0" result="BackgroundImageFix"/>
<feColorMatrix in="SourceAlpha" type="matrix" values="0 0 0 0 0 0 0 0 0 0 0 0 0 0 0 0 0 0 127 0" result="hardAlpha"/>
<feOffset dy="4"/>
<feGaussianBlur stdDeviation="2"/>
<feComposite in2="hardAlpha" operator="out"/>
<feColorMatrix type="matrix" values="0 0 0 0 0 0 0 0 0 0 0 0 0 0 0 0 0 0 0.25 0"/>
<feBlend mode="normal" in2="BackgroundImageFix" result="effect1_dropShadow_18_1424"/>
<feBlend mode="normal" in="SourceGraphic" in2="effect1_dropShadow_18_1424" result="shape"/>
</filter>
</defs>
</svg>
