<svg width="16" height="15" viewBox="0 0 16 15" fill="none" xmlns="http://www.w3.org/2000/svg">
<path d="M7.8125 0C12.1203 0 15.625 2.79719 15.625 6.23563C15.625 9.67406 12.1203 12.4709 7.8125 12.4709C7.61062 12.4709 7.40281 12.4641 7.19281 12.4506C4.89 14.1706 3.00187 14.4041 2.92031 14.4134C2.89656 14.4163 2.87281 14.4175 2.84906 14.4175C2.63031 14.4175 2.42531 14.3025 2.31156 14.1116C2.18594 13.8997 2.19625 13.6341 2.33781 13.4328C2.345 13.4225 2.95219 12.5578 3.58875 11.4847C1.35812 10.345 0 8.38344 0 6.23563C0 2.79719 3.50469 0 7.8125 0Z" fill="white"/>
</svg>
