<svg width="19" height="20" viewBox="0 0 19 20" fill="none" xmlns="http://www.w3.org/2000/svg">
<g clip-path="url(#clip0_183_1162)">
<path d="M9.5 0.532837C14.7466 0.532837 19 4.78625 19 10.0328C19 15.2794 14.7466 19.5328 9.5 19.5328C4.25341 19.5328 0 15.2794 0 10.0328C0 4.78625 4.25341 0.532837 9.5 0.532837ZM12.9545 10.8965C13.4313 10.8965 13.8182 10.51 13.8182 10.0328C13.8182 9.55568 13.4313 9.1692 12.9545 9.1692C8.64091 9.1692 9.82161 9.1692 6.04545 9.1692C5.56873 9.1692 5.18182 9.55568 5.18182 10.0328C5.18182 10.51 5.56873 10.8965 6.04545 10.8965C9.59214 10.8965 9.40789 10.8965 12.9545 10.8965Z" fill="white"/>
</g>
<defs>
<clipPath id="clip0_183_1162">
<rect width="19" height="19" fill="white" transform="translate(0 0.550049)"/>
</clipPath>
</defs>
</svg>
